<svg width="69" height="57" viewBox="0 0 69 57" fill="none" xmlns="http://www.w3.org/2000/svg">
<path d="M23.243 33.578L2.89721 27.6939L23.6034 23.2577L29.4879 2.89769L33.9379 23.6186L54.2842 29.4884L33.5775 33.9388L27.6934 54.2846L23.243 33.578Z" stroke="black" stroke-miterlimit="10"/>
<path d="M68.1695 26.4821C66.6292 24.6897 63.9232 24.4851 62.1308 26.0254C60.3385 27.5657 60.1338 30.2718 61.6741 32.0641C63.2145 33.8565 65.9205 34.0611 67.7128 32.5208" stroke="black" stroke-miterlimit="10"/>
<path d="M36.5341 33.1557L42.3659 43.3635L32.5898 36.8339" stroke="black" stroke-miterlimit="10"/>
<path d="M20.6465 24.0269L14.8147 13.8192L24.5903 20.3631" stroke="black" stroke-miterlimit="10"/>
<path d="M24.0246 36.5363L13.8169 42.3681L20.3465 32.592" stroke="black" stroke-miterlimit="10"/>
<path d="M33.1553 20.6606L43.3635 14.8146L36.8339 24.5906" stroke="black" stroke-miterlimit="10"/>
<path d="M24.3075 28.4422C24.2249 30.8072 26.0751 32.7913 28.4402 32.8739C30.8052 32.9565 32.7894 31.1062 32.8719 28.7412C32.9545 26.3762 31.1043 24.392 28.7392 24.3094C26.3742 24.2269 24.39 26.0771 24.3075 28.4422Z" stroke="black" stroke-miterlimit="10"/>
</svg>
