<?xml version="1.0" encoding="utf-8"?>
<!-- Generator: Adobe Illustrator 23.1.0, SVG Export Plug-In . SVG Version: 6.00 Build 0)  -->
<svg version="1.1" id="Слой_1" xmlns="http://www.w3.org/2000/svg" xmlns:xlink="http://www.w3.org/1999/xlink" x="0px" y="0px"
	 viewBox="0 0 69 57" style="enable-background:new 0 0 69 57;" xml:space="preserve">
<style type="text/css">
	.st0{fill:none;stroke:#000000;stroke-miterlimit:10;}
</style>
<path class="st0" d="M23.4,34L2.9,28.8l20.5-5.2l5.2-20.6l5.2,20.6l20.5,5.2L33.8,34l-5.2,20.5L23.4,34z"/>
<path class="st0" d="M68.1,25.3c-1.6-1.7-4.3-1.8-6.1-0.2c-1.7,1.6-1.8,4.3-0.2,6.1c1.6,1.7,4.3,1.8,6.1,0.2"/>
<path class="st0" d="M36.7,33.1l6.2,10l-10-6.2"/>
<path class="st0" d="M20.5,24.5l-6.2-10l10,6.2"/>
<path class="st0" d="M24.3,36.9l-10,6.2l6.2-10"/>
<path class="st0" d="M32.9,20.7l10-6.2l-6.2,10"/>
<path class="st0" d="M24.3,28.8c0,2.4,1.9,4.3,4.3,4.3c2.4,0,4.3-1.9,4.3-4.3c0-2.4-1.9-4.3-4.3-4.3C26.2,24.5,24.3,26.5,24.3,28.8z
	"/>
</svg>
