<svg width="250" height="261" viewBox="0 0 250 261" fill="none" xmlns="http://www.w3.org/2000/svg">
<rect x="88.3076" y="39.4104" width="168" height="18" transform="rotate(115 88.3076 39.4104)" fill="#F0EDE8"/>
<rect x="249.076" y="77.9664" width="19" height="151" transform="rotate(115 249.076 77.9664)" fill="#F0EDE8"/>
<rect opacity="0.15" x="0.0878906" y="183.64" width="168" height="1.00001" transform="rotate(-65 0.0878906 183.64)" fill="black"/>
<rect opacity="0.15" x="17.3079" y="191.67" width="168" height="1.00001" transform="rotate(-65 17.3079 191.67)" fill="black"/>
<rect opacity="0.15" x="112.646" y="13.2448" width="151" height="1.00001" transform="rotate(25 112.646 13.2448)" fill="black"/>
<rect opacity="0.15" x="104.194" y="31.3708" width="151" height="1.00001" transform="rotate(25 104.194 31.3708)" fill="black"/>
<rect x="112.209" y="63.7499" width="94.1109" height="34.2832" transform="rotate(35.092 112.209 63.7499)" fill="#C3C3C3"/>
<path d="M133.434 33.938L136.904 31.511L136.926 31.4638L133.073 29.6673L132.87 30.1032L135.981 31.5536L132.585 33.9147L132.541 34.0089L133.047 34.2452C134.355 34.855 134.473 35.9859 133.957 37.0934C133.446 38.1891 132.516 38.6449 131.526 38.1834C130.537 37.7219 130.4 36.7834 130.813 35.7136L130.288 35.6408C129.859 36.7749 129.975 38.0338 131.307 38.6547C132.497 39.2096 133.766 38.8259 134.474 37.3061C134.98 36.2221 135.121 34.8108 133.434 33.938ZM135.891 36.9051L139.278 38.4701L139.464 38.0695L136.083 36.4927L135.891 36.9051ZM143.984 36.849C144.726 37.1951 145.425 36.8038 146.089 35.3782L145.701 35.1969C145.19 36.2926 144.737 36.7702 144.148 36.4955C143.542 36.2271 143.634 35.5674 144.145 34.4717L143.745 34.2849C143.08 35.7105 143.241 36.5029 143.984 36.849ZM145.184 38.4272L140.162 41.2921C140.305 40.9858 140.459 40.6849 140.597 40.3904L142.151 37.0561L141.692 36.8418L139.187 42.2144L139.387 42.3078L144.375 39.4555C144.187 39.827 143.983 40.2339 143.785 40.6581L142.384 43.6625L142.844 43.8767L145.349 38.5041L145.184 38.4272ZM149.054 46.9161C150.68 47.6743 152.558 47.0297 153.882 44.1903C155.212 41.339 154.481 39.4921 152.867 38.7394C151.241 37.9812 149.356 38.6085 148.027 41.4597C146.703 44.2992 147.416 46.1524 149.054 46.9161ZM149.274 46.4448C147.954 45.8295 147.364 44.2346 148.533 41.696C149.744 39.1911 151.322 38.6071 152.642 39.2224C153.949 39.8323 154.511 41.428 153.376 43.954C152.183 46.4816 150.582 47.0546 149.274 46.4448ZM157.761 44.22C156.842 43.7915 155.916 43.9912 155.266 44.6488C156.112 43.0786 156.861 42.3661 158.491 42.653C159.958 42.9212 160.576 42.5205 160.989 41.6949L160.53 41.4807C160.18 42.1067 159.775 42.3911 158.524 42.1519C156.521 41.8345 155.597 42.7379 154.323 45.4713C153.367 47.5214 153.577 49.0394 154.932 49.6712C156.239 50.2811 157.527 49.705 158.395 47.8435C159.257 45.9937 158.844 44.7255 157.761 44.22ZM155.17 49.2227C154.074 48.7118 153.994 47.4984 154.697 45.9903C155.351 44.5883 156.433 44.1749 157.446 44.6473C158.401 45.0924 158.554 46.2107 157.9 47.6127C157.223 49.0329 156.301 49.7502 155.17 49.2227ZM161.768 48.6561L160.519 48.0737L161.458 46.059L160.999 45.8447L158.51 51.182L160.218 51.9786C161.573 52.6104 162.501 52.3117 163.012 51.216C163.523 50.1203 163.123 49.2879 161.768 48.6561ZM165.535 47.96L163.046 53.2972L163.505 53.5115L166.03 48.1907L165.535 47.96ZM160.404 51.549L159.167 50.9721L160.326 48.4861L161.564 49.063C162.6 49.5465 162.903 50.1896 162.535 50.979C162.156 51.7919 161.441 52.0325 160.404 51.549ZM169.282 55.7029L171.578 50.7781L168.032 49.1243L166.471 52.4704C166.01 53.4601 165.488 53.9338 164.805 53.6152L164.71 53.5712L163.771 55.586L164.23 55.8002L164.977 54.1979L169.231 56.1812L168.484 57.7836L168.931 57.9924L169.871 55.9776L169.282 55.7029ZM167.004 52.5897L168.317 49.7738L170.897 50.9769L168.799 55.4777L165.712 54.0382C166.11 53.9227 166.548 53.5676 167.004 52.5897ZM174.625 57.2477C174.14 57.6099 173.464 57.7679 172.675 57.3998C171.873 57.0262 171.452 56.0839 172.102 54.5366L175.512 56.1126C176.637 53.8543 176.136 52.7455 175.087 52.2566C174.015 51.7566 172.635 52.1316 171.712 54.111C170.795 56.0786 171.311 57.3091 172.442 57.8365C173.432 58.298 174.293 58.0826 174.805 57.6906L174.625 57.2477ZM174.878 52.7043C175.644 53.0614 175.941 53.9315 175.2 55.5221L172.272 54.1713C173.056 52.6436 174.101 52.3417 174.878 52.7043ZM181.405 55.3603L180.339 57.646L177.594 56.3659L178.66 54.0802L178.188 53.8605L175.7 59.1977L176.171 59.4175L177.391 56.8019L180.136 58.082L178.916 60.6976L179.411 60.9283L181.9 55.5911L181.405 55.3603ZM182.757 62.632C183.57 63.0111 184.498 62.9276 185.19 62.2748L184.952 61.8625C184.379 62.4132 183.743 62.5469 183.001 62.2008C182.165 61.8107 181.735 60.793 182.516 59.149C183.291 57.4878 184.393 57.1553 185.229 57.5453C185.866 57.842 186.082 58.3304 186.031 59.2101L186.53 59.1557C186.594 58.1245 186.257 57.4649 185.444 57.0858C184.324 56.5639 182.939 56.9507 182.022 58.9183C181.11 60.8741 181.638 62.1101 182.757 62.632ZM189.312 65.5453L188.086 61.5599L191.789 60.2025L191.2 59.9278L187.533 61.3017L188.714 58.7686L188.254 58.5543L185.766 63.8915L186.225 64.1058L187.522 61.3253L188.711 65.2651L189.312 65.5453ZM196.259 62.2437L191.236 65.1086C191.379 64.8022 191.534 64.5014 191.671 64.2068L193.226 60.8725L192.766 60.6583L190.261 66.0309L190.461 66.1243L195.449 63.2719C195.262 63.6435 195.057 64.0503 194.86 64.4745L193.459 67.4789L193.918 67.6932L196.423 62.3206L196.259 62.2437ZM200.558 63.23C201.3 63.5762 201.999 63.1848 202.664 61.7592L202.275 61.5779C201.764 62.6736 201.312 63.1513 200.723 62.8766C200.116 62.6082 200.209 61.9484 200.72 60.8527L200.319 60.6659C199.654 62.0915 199.816 62.8839 200.558 63.23ZM201.758 64.8083L196.736 67.6732C196.879 67.3668 197.033 67.066 197.171 66.7714L198.726 63.4371L198.266 63.2229L195.761 68.5955L195.961 68.6889L200.949 65.8365C200.761 66.2081 200.557 66.6149 200.359 67.0391L198.959 70.0435L199.418 70.2578L201.923 64.8852L201.758 64.8083ZM203.256 72.0475L203.739 72.2728L206.019 67.3833L208.741 68.6524L206.461 73.5419L206.944 73.7672L209.433 68.4299L205.745 66.7103L203.256 72.0475ZM212.467 74.894C211.983 75.2562 211.307 75.4143 210.517 75.0462C209.716 74.6726 209.295 73.7303 209.945 72.1829L213.355 73.7589C214.48 71.5007 213.979 70.3919 212.93 69.9029C211.858 69.403 210.478 69.778 209.555 71.7574C208.638 73.725 209.154 74.9555 210.285 75.4829C211.275 75.9444 212.135 75.729 212.648 75.3369L212.467 74.894ZM212.721 70.3507C213.487 70.7078 213.784 71.5779 213.042 73.1684L210.115 71.8177C210.899 70.2899 211.944 69.9881 212.721 70.3507ZM218.06 72.3238C217.306 71.9722 216.479 72.146 215.873 72.7383L216.373 71.6662L215.937 71.4629L212.399 79.0505L212.847 79.2593L214.39 75.9485C214.275 76.8415 214.695 77.5105 215.425 77.8511C216.603 78.4005 217.869 77.9007 218.754 76.0038C219.633 74.1187 219.25 72.8787 218.06 72.3238ZM215.581 77.3642C214.673 76.9411 214.408 75.9422 215.16 74.3281L215.243 74.1514C215.896 72.7493 216.956 72.354 217.792 72.744C218.7 73.1671 219.018 74.1762 218.247 75.7675C217.488 77.3644 216.5 77.7927 215.581 77.3642ZM218.708 79.3965C218.968 79.5173 219.272 79.3869 219.393 79.1277C219.519 78.8567 219.424 78.5394 219.164 78.4185C218.917 78.3032 218.589 78.4226 218.462 78.6936C218.341 78.9528 218.461 79.2811 218.708 79.3965Z" fill="black"/>
<path d="M28.1588 157.542L26.719 155.345C25.765 153.735 24.9469 152.663 23.7698 152.111C22.4985 151.515 21.5035 151.954 21.029 152.966C20.3835 154.343 21.3385 155.308 22.2438 155.918L22.5892 155.549C21.7372 154.978 21.0317 154.216 21.4951 153.227C21.8758 152.415 22.6144 152.187 23.5561 152.628C24.4154 153.031 25.1438 153.775 26.2724 155.624L28.1589 158.461L28.253 158.505L30.2171 154.315L29.7698 154.105L28.1588 157.542ZM27.4433 152.268L29.0149 148.885L28.6147 148.697L27.0313 152.075L27.4433 152.268ZM27.403 144.176C27.7505 143.434 27.3606 142.734 25.9363 142.067L25.7542 142.455C26.8489 142.968 27.3257 143.421 27.0498 144.01C26.7802 144.616 26.1207 144.522 25.026 144.009L24.8384 144.409C26.2627 145.077 27.0554 144.917 27.403 144.176ZM28.9835 142.978L31.8386 148.006C31.5326 147.863 31.232 147.707 30.9378 147.569L27.6065 146.008L27.3913 146.467L32.759 148.983L32.8528 148.783L30.0102 143.79C30.3814 143.978 30.7879 144.183 31.2116 144.381L34.2133 145.788L34.4285 145.329L29.0608 142.813L28.9835 142.978ZM37.4799 139.125C38.2413 137.5 37.6004 135.621 34.7635 134.291C31.9149 132.956 30.0665 133.683 29.3107 135.296C28.5493 136.92 29.1729 138.806 32.0216 140.141C34.8584 141.471 36.7131 140.761 37.4799 139.125ZM37.0091 138.904C36.3912 140.222 34.7951 140.81 32.2588 139.635C29.7563 138.419 29.1754 136.84 29.7933 135.522C30.4057 134.215 32.0025 133.657 34.5263 134.797C37.0516 135.995 37.6215 137.597 37.0091 138.904ZM34.8009 130.413C34.3705 131.331 34.5685 132.257 35.2247 132.909C33.6562 132.059 32.9451 131.309 33.2353 129.679C33.5063 128.213 33.1068 127.595 32.2821 127.179L32.0669 127.638C32.6923 127.989 32.9759 128.395 32.7343 129.645C32.4129 131.648 33.3145 132.573 36.0454 133.853C38.0936 134.813 39.6121 134.606 40.2465 133.252C40.8589 131.946 40.2854 130.658 38.4255 129.786C36.5775 128.92 35.3084 129.33 34.8009 130.413ZM39.7985 133.014C39.2854 134.108 38.0719 134.186 36.5652 133.48C35.1644 132.823 34.7531 131.74 35.2276 130.728C35.6744 129.774 36.793 129.624 38.1938 130.28C39.6126 130.96 40.3281 131.884 39.7985 133.014ZM39.2448 126.415L38.6599 127.662L36.6471 126.719L36.4319 127.178L41.7643 129.677L42.5642 127.97C43.1987 126.617 42.9018 125.688 41.8071 125.175C40.7124 124.662 39.8792 125.061 39.2448 126.415ZM38.556 122.646L43.8883 125.145L44.1035 124.686L38.7877 122.152L38.556 122.646ZM42.135 127.784L41.5557 129.019L39.0719 127.855L39.6512 126.619C40.1367 125.584 40.7804 125.282 41.5691 125.652C42.3813 126.033 42.6205 126.748 42.135 127.784ZM46.3062 118.914L41.3858 116.608L39.7252 120.151L43.0683 121.718C44.057 122.182 44.5297 122.705 44.2098 123.387L44.1656 123.481L46.1785 124.425L46.3937 123.966L44.7928 123.215L46.7844 118.966L48.3853 119.716L48.595 119.269L46.5821 118.326L46.3062 118.914ZM43.1885 121.186L40.3752 119.867L41.5834 117.289L46.08 119.397L44.6346 122.481C44.5198 122.083 44.1655 121.644 43.1885 121.186ZM47.8614 113.574C48.2226 114.06 48.3794 114.736 48.0097 115.525C47.6346 116.325 46.6914 116.744 45.1454 116.092L46.728 112.684C44.472 111.555 43.3622 112.054 42.8712 113.102C42.3692 114.173 42.7415 115.554 44.7191 116.48C46.6849 117.402 47.9164 116.888 48.446 115.758C48.9094 114.769 48.6957 113.908 48.3046 113.394L47.8614 113.574ZM43.3185 113.312C43.6771 112.546 44.5478 112.251 46.1369 112.996L44.7805 115.921C43.2542 115.134 42.9544 114.088 43.3185 113.312ZM45.9873 106.79L48.2709 107.861L46.9854 110.603L44.7018 109.533L44.4811 110.004L49.8135 112.503L50.0342 112.032L47.421 110.807L48.7064 108.065L51.3197 109.29L51.5514 108.795L46.219 106.296L45.9873 106.79ZM53.2616 105.452C53.6423 104.64 53.5606 103.712 52.9091 103.019L52.4964 103.256C53.046 103.83 53.1784 104.466 52.8309 105.208C52.4391 106.043 51.4206 106.47 49.7782 105.686C48.1184 104.908 47.788 103.806 48.1797 102.97C48.4777 102.335 48.9665 102.119 49.846 102.172L49.7927 101.673C48.7616 101.606 48.1013 101.943 47.7207 102.755C47.1965 103.873 47.5806 105.259 49.5464 106.181C51.5005 107.096 52.7375 106.571 53.2616 105.452ZM56.1876 98.9032L52.1999 100.121L50.8497 96.4157L50.5739 97.0043L51.9406 100.674L49.4098 99.488L49.1946 99.9471L54.527 102.446L54.7422 101.987L51.9641 100.685L55.9062 99.5035L56.1876 98.9032ZM52.8996 91.9502L55.7547 96.9781C55.4486 96.8346 55.1481 96.6794 54.8538 96.5415L51.5225 94.9802L51.3074 95.4393L56.6751 97.955L56.7689 97.7549L53.9263 92.7616C54.2974 92.9499 54.7039 93.1548 55.1277 93.3534L58.1293 94.7602L58.3445 94.3011L52.9768 91.7854L52.8996 91.9502ZM53.8943 87.6528C54.2419 86.9112 53.852 86.2116 52.4276 85.544L52.2456 85.9325C53.3403 86.4456 53.8171 86.8987 53.5412 87.4873C53.2716 88.0931 52.6121 87.9994 51.5173 87.4863L51.3298 87.8865C52.7541 88.5541 53.5468 88.3944 53.8943 87.6528ZM55.4749 86.4554L58.33 91.4833C58.0239 91.3398 57.7234 91.1846 57.4291 91.0467L54.0979 89.4854L53.8827 89.9445L59.2504 92.4602L59.3442 92.2601L56.5016 87.2668C56.8728 87.4551 57.2792 87.66 57.703 87.8586L60.7047 89.2654L60.9198 88.8064L55.5521 86.2906L55.4749 86.4554ZM62.7171 84.9717L62.9433 84.4891L58.0582 82.1995L59.3326 79.4803L64.2177 81.7699L64.4439 81.2873L59.1115 78.7881L57.3847 82.4725L62.7171 84.9717ZM65.5816 75.7661C65.9428 76.2513 66.0995 76.9277 65.7299 77.7164C65.3547 78.5168 64.4116 78.9362 62.8655 78.2834L64.4482 74.876C62.1922 73.7468 61.0824 74.246 60.5914 75.2937C60.0893 76.3649 60.4617 77.7454 62.4392 78.6722C64.405 79.5936 65.6365 79.0796 66.1662 77.9496C66.6296 76.9608 66.4158 76.0997 66.0248 75.5862L65.5816 75.7661ZM61.0387 75.5033C61.3973 74.7382 62.268 74.4428 63.8571 75.1876L62.5006 78.1124C60.9744 77.3253 60.6746 76.2802 61.0387 75.5033ZM63.0222 70.1684C62.6691 70.9218 62.8413 71.749 63.4325 72.3563L62.3613 71.8543L62.1572 72.2898L69.7379 75.8427L69.9475 75.3954L66.6398 73.8452C67.5326 73.9621 68.2024 73.5438 68.5444 72.814C69.0961 71.6369 68.5987 70.37 66.7036 69.4818C64.8202 68.5991 63.5795 68.9795 63.0222 70.1684ZM68.0578 72.6577C67.633 73.5641 66.6335 73.8279 65.0209 73.072L64.8443 72.9893C63.4435 72.3328 63.0503 71.2727 63.442 70.4369C63.8668 69.5305 64.8765 69.2141 66.4663 69.988C68.0617 70.7501 68.4881 71.7395 68.0578 72.6577ZM70.0961 69.5339C70.2175 69.2749 70.0877 68.97 69.8287 68.8486C69.5579 68.7217 69.2405 68.817 69.1191 69.0759C69.0033 69.3231 69.1221 69.6516 69.3928 69.7785C69.6518 69.8999 69.9803 69.7811 70.0961 69.5339Z" fill="black"/>
<path d="M118.222 85.5593L122.983 78.7836L122.557 78.4846L117.797 85.2604L114.776 83.1379L119.536 76.3621L119.1 76.0557L114.07 83.2144L118.102 86.0469L117.085 87.4935L117.49 87.7775L118.775 85.948L118.222 85.5593ZM123.171 88.0039C122.631 88.2756 121.937 88.3127 121.225 87.812C120.501 87.3038 120.252 86.3022 121.163 84.8927L124.244 87.0419C125.747 85.0157 125.448 83.8362 124.501 83.1711C123.533 82.491 122.109 82.6184 120.854 84.4054C119.605 86.1818 119.898 87.4838 120.919 88.2012C121.813 88.829 122.698 88.7677 123.271 88.4716L123.171 88.0039ZM124.217 83.5753C124.909 84.0611 125.049 84.9697 124.04 86.4057L121.394 84.5629C122.434 83.1962 123.515 83.082 124.217 83.5753ZM129.128 86.4534C128.447 85.9751 127.602 86.0013 126.902 86.4783L127.582 85.5103L127.188 85.2338L122.375 92.084L122.779 92.368L124.88 89.379C124.61 90.238 124.906 90.9702 125.565 91.4335C126.629 92.1809 127.963 91.9106 129.166 90.198C130.362 88.4961 130.202 87.2082 129.128 86.4534ZM125.803 90.9813C124.984 90.4058 124.898 89.3758 125.922 87.9186L126.034 87.759C126.923 86.4932 128.035 86.2896 128.79 86.8202C129.609 87.3957 129.746 88.445 128.708 89.8766C127.681 91.3158 126.633 91.5642 125.803 90.9813ZM131.846 95.7033L131.337 91.5649L135.22 90.8773L134.689 90.5036L130.837 91.2136L132.444 88.9266L132.029 88.6352L128.644 93.4537L129.059 93.7452L130.822 91.2349L131.303 95.3221L131.846 95.7033ZM133.844 97.2818C134.96 98.0666 136.36 97.7474 137.511 96.1093C138.67 94.4605 138.51 93.014 137.394 92.2293C136.266 91.4371 134.851 91.7775 133.693 93.4263C132.542 95.0644 132.716 96.4896 133.844 97.2818ZM134.135 96.867C133.263 96.2542 133.15 95.1261 134.139 93.7402C135.14 92.3617 136.23 92.0313 137.102 92.6441C137.974 93.2569 138.022 94.387 137.065 95.7954C136.096 97.1963 135.007 97.4798 134.135 96.867ZM141.049 98.4361C141.839 98.7367 142.447 98.3693 142.76 97.9225C143.291 97.1673 143.221 96.4984 142.21 95.7884L140.455 94.5552L137.07 99.3738L138.74 100.547C139.846 101.324 140.767 101.257 141.335 100.448C141.791 99.7995 141.797 99.136 141.049 98.4361ZM142.293 97.7055C141.935 98.2161 141.238 98.3938 140.355 97.7735L139.323 97.0486L140.609 95.219L141.842 96.0859C142.651 96.6539 142.704 97.1205 142.293 97.7055ZM138.969 100.152L137.746 99.293L139.114 97.3464L140.178 98.0938C141.114 98.7514 141.422 99.3974 140.937 100.089C140.593 100.578 139.959 100.847 138.969 100.152ZM145.353 100.713L144.225 99.9207L145.503 98.1018L145.088 97.8103L141.703 102.629L143.245 103.713C144.468 104.572 145.434 104.441 146.13 103.451C146.825 102.462 146.576 101.572 145.353 100.713ZM143.503 103.322L142.387 102.537L143.964 100.293L145.08 101.078C146.016 101.735 146.202 102.422 145.701 103.134C145.185 103.868 144.44 103.98 143.503 103.322ZM157.054 102.659L149.429 106.072L150.102 105.114L153.525 100.243L153.089 99.9361L148.022 107.148L148.192 107.268L155.77 103.854L154.881 105.119L151.697 109.651L152.122 109.95L157.182 102.748L157.054 102.659ZM156.72 113.18L157.156 113.486L160.541 108.668L157.318 106.403L154.531 110.371C154.232 110.796 153.999 110.856 153.712 110.654C153.574 110.557 153.49 110.45 153.407 110.296L153.074 110.635C153.175 110.785 153.312 110.929 153.504 111.063C154.036 111.437 154.496 111.347 155.019 110.603L157.485 107.093L159.836 108.744L156.72 113.18ZM165.378 112.018L159.931 113.959C160.126 113.682 160.331 113.413 160.517 113.147L162.632 110.137L162.218 109.845L158.81 114.696L158.99 114.823L164.401 112.889C164.151 113.222 163.879 113.586 163.61 113.969L161.704 116.682L162.119 116.973L165.527 112.123L165.378 112.018ZM170.343 115.507L164.897 117.447C165.091 117.171 165.296 116.902 165.483 116.636L167.598 113.626L167.183 113.334L163.775 118.185L163.956 118.312L169.366 116.377C169.116 116.71 168.844 117.075 168.575 117.458L166.669 120.17L167.084 120.462L170.492 115.611L170.343 115.507ZM109.776 97.4658C111.243 98.4971 113.206 98.1917 115.007 95.6282C116.815 93.054 116.419 91.1076 114.962 90.0837C113.494 89.0523 111.529 89.3397 109.72 91.9138C107.919 94.4773 108.297 96.4269 109.776 97.4658ZM110.074 97.0403C108.883 96.2032 108.581 94.5296 110.178 92.2352C111.809 89.9813 113.464 89.6828 114.656 90.5198C115.836 91.3494 116.109 93.0187 114.549 95.3068C112.932 97.5863 111.255 97.8699 110.074 97.0403ZM118.82 96.337C117.99 95.7541 117.044 95.7887 116.288 96.322C117.397 94.9245 118.259 94.3541 119.814 94.9223C121.211 95.4434 121.889 95.157 122.441 94.4168L122.026 94.1253C121.572 94.6804 121.124 94.8895 119.934 94.4348C118.017 93.7711 116.95 94.4988 115.216 96.9666C113.915 98.8174 113.856 100.349 115.079 101.208C116.26 102.038 117.628 101.696 118.809 100.016C119.982 98.3455 119.798 97.0246 118.82 96.337ZM115.392 100.808C114.403 100.113 114.537 98.9047 115.494 97.5432C116.383 96.2774 117.521 96.06 118.436 96.7027C119.297 97.3081 119.252 98.4358 118.362 99.7017C117.447 100.981 116.413 101.526 115.392 100.808ZM121.987 101.407L120.86 100.614L122.138 98.7955L121.723 98.5041L118.338 103.323L119.88 104.406C121.103 105.266 122.069 105.134 122.764 104.145C123.459 103.156 123.211 102.266 121.987 101.407ZM125.818 101.381L122.433 106.2L122.848 106.491L126.265 101.695L125.818 101.381ZM120.138 104.016L119.021 103.231L120.598 100.987L121.715 101.771C122.651 102.429 122.837 103.115 122.336 103.828C121.82 104.562 121.074 104.674 120.138 104.016ZM128.151 109.661L131.274 105.215L128.073 102.965L125.95 105.986C125.322 106.88 124.725 107.255 124.108 106.821L124.023 106.761L122.745 108.58L123.16 108.872L124.177 107.425L128.017 110.123L127 111.57L127.404 111.854L128.682 110.035L128.151 109.661ZM126.454 106.197L128.24 103.655L130.569 105.291L127.714 109.355L124.927 107.397C125.34 107.353 125.833 107.08 126.454 106.197ZM133.14 112.118C132.6 112.39 131.906 112.427 131.194 111.926C130.47 111.418 130.221 110.417 131.132 109.007L134.213 111.156C135.716 109.13 135.417 107.951 134.47 107.285C133.502 106.605 132.078 106.733 130.822 108.52C129.574 110.296 129.867 111.598 130.888 112.316C131.782 112.943 132.667 112.882 133.24 112.586L133.14 112.118ZM134.186 107.69C134.878 108.175 135.018 109.084 134.009 110.52L131.363 108.677C132.403 107.311 133.484 107.196 134.186 107.69ZM140.146 111.448L138.696 113.512L136.218 111.77L137.668 109.707L137.242 109.408L133.857 114.226L134.282 114.525L135.941 112.164L138.42 113.905L136.761 116.267L137.207 116.581L140.593 111.762L140.146 111.448ZM140.203 118.844C140.937 119.36 141.866 119.44 142.661 118.919L142.499 118.471C141.839 118.913 141.189 118.933 140.519 118.462C139.764 117.932 139.52 116.855 140.577 115.373C141.63 113.873 142.773 113.739 143.529 114.27C144.103 114.673 144.231 115.192 144.026 116.049L144.527 116.083C144.771 115.079 144.554 114.37 143.82 113.855C142.81 113.145 141.378 113.283 140.13 115.059C138.889 116.825 139.193 118.134 140.203 118.844ZM146.146 122.861L145.638 118.723L149.521 118.035L148.989 117.661L145.138 118.371L146.745 116.084L146.33 115.793L142.945 120.612L143.359 120.903L145.123 118.393L145.604 122.48L146.146 122.861ZM148.144 124.44C149.261 125.224 150.661 124.905 151.812 123.267C152.97 121.618 152.811 120.172 151.694 119.387C150.567 118.595 149.152 118.935 147.993 120.584C146.842 122.222 147.017 123.647 148.144 124.44ZM148.436 124.025C147.563 123.412 147.45 122.284 148.44 120.898C149.44 119.519 150.53 119.189 151.403 119.802C152.275 120.415 152.323 121.545 151.365 122.953C150.397 124.354 149.308 124.638 148.436 124.025ZM157.192 123.424L154.756 121.713L151.37 126.532L151.785 126.823L154.909 122.377L156.93 123.797L157.192 123.424ZM155.893 129.884C157.01 130.669 158.41 130.35 159.561 128.712C160.72 127.063 160.56 125.616 159.443 124.832C158.316 124.039 156.901 124.38 155.743 126.029C154.592 127.667 154.766 129.092 155.893 129.884ZM156.185 129.469C155.313 128.857 155.2 127.729 156.189 126.343C157.19 124.964 158.28 124.634 159.152 125.246C160.024 125.859 160.072 126.989 159.114 128.398C158.146 129.799 157.057 130.082 156.185 129.469Z" fill="black"/>
<path d="M109.027 142.111L180.461 175.421L168.573 200.914L166.578 199.984L157.743 218.931L150.958 215.768L146.46 225.414L58.2651 184.288L85.7353 125.378L111.276 137.288L109.027 142.111Z" fill="#AD8361"/>
</svg>
