<svg width="132" height="132" viewBox="0 0 132 132" fill="none" xmlns="http://www.w3.org/2000/svg">
<path d="M73 40L78.5 46" stroke="black" stroke-linecap="round"/>
<path d="M73 40L78.5 35" stroke="black" stroke-linecap="round"/>
<path opacity="0.7" d="M48.138 15.41C49.898 14.75 50.338 13.1 50.338 11.736C50.338 9.448 49.304 8.194 46.576 8.194H43.65V23H46.51C49.414 23 50.954 21.592 50.954 19.062C50.954 17.082 50.096 15.696 48.138 15.41ZM49.436 11.802C49.436 13.562 48.622 15.102 46.312 15.102H44.53V9.03H46.532C48.666 9.03 49.436 9.954 49.436 11.802ZM46.51 22.164H44.53V15.872H46.4C48.864 15.872 50.03 16.818 50.03 19.04C50.03 20.646 49.084 22.164 46.51 22.164ZM59.896 12.968L54.242 20.954C54.242 20.382 54.264 19.81 54.264 19.26V13.034H53.406V23.066H53.78L59.39 15.124C59.368 15.828 59.346 16.598 59.346 17.39V23H60.204V12.968H59.896ZM70.5395 22.23V13.034H63.9175V19.282C63.9175 21.13 63.4555 22.23 62.1795 22.23H62.0035V25.992H62.8615V23H70.8035V25.992H71.6395V22.23H70.5395ZM64.8195 19.084V13.826H69.6375V22.23H63.8735C64.4015 21.768 64.8195 20.91 64.8195 19.084ZM73.085 17.28L79.399 17.258V16.51H73.085V17.28ZM82.6192 22.164L84.9512 18.38C86.7332 15.762 87.7892 13.738 87.7892 11.538C87.7892 9.162 86.4032 7.952 84.5112 7.952C81.9372 7.952 81.1452 10.108 80.8592 11.934L81.6732 12.198C81.9372 10.482 82.5972 8.854 84.4452 8.854C85.9632 8.854 86.8432 9.822 86.8432 11.582C86.8432 13.188 86.2272 14.838 84.2032 17.896L81.2112 22.824V23H89.0432V22.164H82.6192Z" fill="black"/>
<path d="M41.765 112.925C44.565 111.875 45.265 109.25 45.265 107.08C45.265 103.44 43.62 101.445 39.28 101.445H34.625V125H39.175C43.795 125 46.245 122.76 46.245 118.735C46.245 115.585 44.88 113.38 41.765 112.925ZM43.83 107.185C43.83 109.985 42.535 112.435 38.86 112.435H36.025V102.775H39.21C42.605 102.775 43.83 104.245 43.83 107.185ZM39.175 123.67H36.025V113.66H39C42.92 113.66 44.775 115.165 44.775 118.7C44.775 121.255 43.27 123.67 39.175 123.67ZM60.4709 109.04L51.4759 121.745C51.4759 120.835 51.5109 119.925 51.5109 119.05V109.145H50.1459V125.105H50.7409L59.6659 112.47C59.6309 113.59 59.5959 114.815 59.5959 116.075V125H60.9609V109.04H60.4709ZM77.4038 123.775V109.145H66.8688V119.085C66.8688 122.025 66.1338 123.775 64.1038 123.775H63.8238V129.76H65.1888V125H77.8238V129.76H79.1538V123.775H77.4038ZM68.3038 118.77V110.405H75.9688V123.775H66.7988C67.6388 123.04 68.3038 121.675 68.3038 118.77ZM81.4534 115.9L91.4984 115.865V114.675H81.4534V115.9ZM97.0765 101.13L92.9465 103.02L93.3315 104.21L95.7815 103.02V125H97.1815V101.13H97.0765Z" fill="black"/>
<path d="M73.3516 39.5003C73.0756 39.49 72.8435 39.7053 72.8332 39.9812C72.8228 40.2572 73.0381 40.4893 73.3141 40.4996L73.3516 39.5003ZM70.6667 83C70.6667 81.5272 69.4728 80.3333 68 80.3333C66.5272 80.3333 65.3333 81.5272 65.3333 83C65.3333 84.4728 66.5272 85.6667 68 85.6667C69.4728 85.6667 70.6667 84.4728 70.6667 83ZM73.3141 40.4996C89.7754 41.1176 104.87 43.8041 115.505 47.9888L115.871 47.0583C105.097 42.8186 89.8808 40.1209 73.3516 39.5003L73.3141 40.4996ZM115.505 47.9888C120.825 50.082 124.792 52.4573 127.306 54.9579C129.814 57.4534 130.836 60.0275 130.403 62.5667L131.389 62.7348C131.894 59.7718 130.664 56.8884 128.011 54.2489C125.362 51.6145 121.256 49.1773 115.871 47.0583L115.505 47.9888ZM130.403 62.5667C129.966 65.1313 128.041 67.6994 124.652 70.1185C121.273 72.5316 116.497 74.7516 110.493 76.6344L110.792 77.5886C116.856 75.6873 121.738 73.428 125.234 70.9323C128.721 68.4426 130.888 65.6725 131.389 62.7348L130.403 62.5667ZM110.493 76.6344C98.4802 80.4012 84.5578 82.5027 68.0001 82.5L67.9999 83.5C84.643 83.5027 98.6682 81.3902 110.792 77.5886L110.493 76.6344Z" fill="black"/>
<path d="M58.6484 83.4997C58.9244 83.51 59.1565 83.2947 59.1668 83.0188C59.1772 82.7428 58.9619 82.5107 58.6859 82.5004L58.6484 83.4997ZM16.3119 75.4765L16.495 75.0112L16.3119 75.4765ZM1.10395 60.3492L0.611062 60.2652L1.10395 60.3492ZM21.3576 45.8885L21.5072 46.3656L21.3576 45.8885ZM60.8333 40C60.8333 41.4728 62.0272 42.6667 63.5 42.6667C64.9728 42.6667 66.1667 41.4728 66.1667 40C66.1667 38.5272 64.9728 37.3333 63.5 37.3333C62.0272 37.3333 60.8333 38.5272 60.8333 40ZM58.6859 82.5004C42.2246 81.8823 27.1297 79.1959 16.495 75.0112L16.1288 75.9417C26.9033 80.1814 42.1192 82.8791 58.6484 83.4997L58.6859 82.5004ZM16.495 75.0112C11.1755 72.918 7.20839 70.5427 4.69445 68.0421C2.18564 65.5466 1.16381 62.9725 1.59683 60.4333L0.611062 60.2652C0.105779 63.2282 1.33563 66.1116 3.98923 68.7511C6.6377 71.3855 10.7437 73.8227 16.1288 75.9417L16.495 75.0112ZM1.59683 60.4333C2.03417 57.8687 3.95946 55.3005 7.34758 52.8815C10.7274 50.4683 15.5026 48.2484 21.5072 46.3656L21.208 45.4114C15.1444 47.3127 10.2619 49.572 6.7665 52.0676C3.27943 54.5573 1.11203 57.3274 0.611062 60.2652L1.59683 60.4333ZM21.5072 46.3656C33.5213 42.5983 46.944 40.4973 63.4999 40.5L63.5001 39.5C46.8552 39.4973 33.3303 41.6102 21.208 45.4114L21.5072 46.3656Z" fill="black"/>
<path d="M59.5 83L54 77" stroke="black" stroke-linecap="round"/>
<path d="M59.5 83L54 88.5" stroke="black" stroke-linecap="round"/>
</svg>
