<svg width="132" height="132" viewBox="0 0 132 132" fill="none" xmlns="http://www.w3.org/2000/svg">
<path d="M73 40L78.5 46" stroke="black" stroke-linecap="round"/>
<path d="M73 40L78.5 35" stroke="black" stroke-linecap="round"/>
<path opacity="0.7" d="M50.138 15.41C51.898 14.75 52.338 13.1 52.338 11.736C52.338 9.448 51.304 8.194 48.576 8.194H45.65V23H48.51C51.414 23 52.954 21.592 52.954 19.062C52.954 17.082 52.096 15.696 50.138 15.41ZM51.436 11.802C51.436 13.562 50.622 15.102 48.312 15.102H46.53V9.03H48.532C50.666 9.03 51.436 9.954 51.436 11.802ZM48.51 22.164H46.53V15.872H48.4C50.864 15.872 52.03 16.818 52.03 19.04C52.03 20.646 51.084 22.164 48.51 22.164ZM61.896 12.968L56.242 20.954C56.242 20.382 56.264 19.81 56.264 19.26V13.034H55.406V23.066H55.78L61.39 15.124C61.368 15.828 61.346 16.598 61.346 17.39V23H62.204V12.968H61.896ZM72.5395 22.23V13.034H65.9175V19.282C65.9175 21.13 65.4555 22.23 64.1795 22.23H64.0035V25.992H64.8615V23H72.8035V25.992H73.6395V22.23H72.5395ZM66.8195 19.084V13.826H71.6375V22.23H65.8735C66.4015 21.768 66.8195 20.91 66.8195 19.084ZM75.085 17.28L81.399 17.258V16.51H75.085V17.28ZM84.9052 7.996L82.3092 9.184L82.5512 9.932L84.0912 9.184V23H84.9712V7.996H84.9052Z" fill="black"/>
<path d="M37.765 112.925C40.565 111.875 41.265 109.25 41.265 107.08C41.265 103.44 39.62 101.445 35.28 101.445H30.625V125H35.175C39.795 125 42.245 122.76 42.245 118.735C42.245 115.585 40.88 113.38 37.765 112.925ZM39.83 107.185C39.83 109.985 38.535 112.435 34.86 112.435H32.025V102.775H35.21C38.605 102.775 39.83 104.245 39.83 107.185ZM35.175 123.67H32.025V113.66H35C38.92 113.66 40.775 115.165 40.775 118.7C40.775 121.255 39.27 123.67 35.175 123.67ZM56.4709 109.04L47.4759 121.745C47.4759 120.835 47.5109 119.925 47.5109 119.05V109.145H46.1459V125.105H46.7409L55.6659 112.47C55.6309 113.59 55.5959 114.815 55.5959 116.075V125H56.9609V109.04H56.4709ZM73.4038 123.775V109.145H62.8688V119.085C62.8688 122.025 62.1338 123.775 60.1038 123.775H59.8238V129.76H61.1888V125H73.8238V129.76H75.1538V123.775H73.4038ZM64.3038 118.77V110.405H71.9688V123.775H62.7988C63.6388 123.04 64.3038 121.675 64.3038 118.77ZM77.4534 115.9L87.4984 115.865V114.675H77.4534V115.9ZM92.6215 123.67L96.3315 117.65C99.1665 113.485 100.846 110.265 100.846 106.765C100.846 102.985 98.6415 101.06 95.6315 101.06C91.5365 101.06 90.2765 104.49 89.8215 107.395L91.1165 107.815C91.5365 105.085 92.5865 102.495 95.5265 102.495C97.9415 102.495 99.3415 104.035 99.3415 106.835C99.3415 109.39 98.3615 112.015 95.1415 116.88L90.3815 124.72V125H102.841V123.67H92.6215Z" fill="black"/>
<path d="M73.3516 39.5003C73.0756 39.49 72.8435 39.7053 72.8332 39.9812C72.8228 40.2572 73.0381 40.4893 73.3141 40.4996L73.3516 39.5003ZM70.6667 83C70.6667 81.5272 69.4728 80.3333 68 80.3333C66.5272 80.3333 65.3333 81.5272 65.3333 83C65.3333 84.4728 66.5272 85.6667 68 85.6667C69.4728 85.6667 70.6667 84.4728 70.6667 83ZM73.3141 40.4996C89.7754 41.1176 104.87 43.8041 115.505 47.9888L115.871 47.0583C105.097 42.8186 89.8808 40.1209 73.3516 39.5003L73.3141 40.4996ZM115.505 47.9888C120.825 50.082 124.792 52.4573 127.306 54.9579C129.814 57.4534 130.836 60.0275 130.403 62.5667L131.389 62.7348C131.894 59.7718 130.664 56.8884 128.011 54.2489C125.362 51.6145 121.256 49.1773 115.871 47.0583L115.505 47.9888ZM130.403 62.5667C129.966 65.1313 128.041 67.6994 124.652 70.1185C121.273 72.5316 116.497 74.7516 110.493 76.6344L110.792 77.5886C116.856 75.6873 121.738 73.428 125.234 70.9323C128.721 68.4426 130.888 65.6725 131.389 62.7348L130.403 62.5667ZM110.493 76.6344C98.4802 80.4012 84.5578 82.5027 68.0001 82.5L67.9999 83.5C84.643 83.5027 98.6682 81.3902 110.792 77.5886L110.493 76.6344Z" fill="black"/>
<path d="M58.6484 83.4997C58.9244 83.51 59.1565 83.2947 59.1668 83.0188C59.1772 82.7428 58.9619 82.5107 58.6859 82.5004L58.6484 83.4997ZM16.3119 75.4765L16.495 75.0112L16.3119 75.4765ZM1.10395 60.3492L0.611062 60.2652L1.10395 60.3492ZM21.3576 45.8885L21.5072 46.3656L21.3576 45.8885ZM60.8333 40C60.8333 41.4728 62.0272 42.6667 63.5 42.6667C64.9728 42.6667 66.1667 41.4728 66.1667 40C66.1667 38.5272 64.9728 37.3333 63.5 37.3333C62.0272 37.3333 60.8333 38.5272 60.8333 40ZM58.6859 82.5004C42.2246 81.8823 27.1297 79.1959 16.495 75.0112L16.1288 75.9417C26.9033 80.1814 42.1192 82.8791 58.6484 83.4997L58.6859 82.5004ZM16.495 75.0112C11.1755 72.918 7.20839 70.5427 4.69445 68.0421C2.18564 65.5466 1.16381 62.9725 1.59683 60.4333L0.611062 60.2652C0.105779 63.2282 1.33563 66.1116 3.98923 68.7511C6.6377 71.3855 10.7437 73.8227 16.1288 75.9417L16.495 75.0112ZM1.59683 60.4333C2.03417 57.8687 3.95946 55.3005 7.34758 52.8815C10.7274 50.4683 15.5026 48.2484 21.5072 46.3656L21.208 45.4114C15.1444 47.3127 10.2619 49.572 6.7665 52.0676C3.27943 54.5573 1.11203 57.3274 0.611062 60.2652L1.59683 60.4333ZM21.5072 46.3656C33.5213 42.5983 46.944 40.4973 63.4999 40.5L63.5001 39.5C46.8552 39.4973 33.3303 41.6102 21.208 45.4114L21.5072 46.3656Z" fill="black"/>
<path d="M59.5 83L54 77" stroke="black" stroke-linecap="round"/>
<path d="M59.5 83L54 88.5" stroke="black" stroke-linecap="round"/>
</svg>
